<?xml version="1.0" encoding="UTF-8" standalone="no"?><!DOCTYPE svg PUBLIC "-//W3C//DTD SVG 1.1//EN" "http://www.w3.org/Graphics/SVG/1.1/DTD/svg11.dtd"><!-- Generated by graphviz version 2.40.1 (20161225.0304)
 --><!-- Title: %0 Pages: 1 --><svg xmlns="http://www.w3.org/2000/svg" xmlns:xlink="http://www.w3.org/1999/xlink" width="807pt" height="429pt" viewBox="0.00 0.00 806.93 428.60">
<g id="graph0" class="graph" transform="scale(1 1) rotate(0) translate(4 424.6)">
<title>%0</title>
<polygon fill="#ffffff" stroke="transparent" points="-4,4 -4,-424.6 802.933,-424.6 802.933,4 -4,4"/>
<!-- teplota -->
<g id="node1" class="node">
<title>teplota</title>
<polygon fill="none" stroke="#000000" points="473.3069,-320.9 473.3069,-420.1 628.6931,-420.1 628.6931,-320.9 473.3069,-320.9"/>
<text text-anchor="middle" x="500.3574" y="-366.3" font-family="Times,serif" font-size="14.00" fill="#000000">teplota</text>
<polyline fill="none" stroke="#000000" points="527.4079,-320.9 527.4079,-420.1 "/>
<text text-anchor="middle" x="578.0505" y="-403.5" font-family="Times,serif" font-size="14.00" fill="#000000">teplota=0.4325</text>
<polyline fill="none" stroke="#000000" points="527.4079,-395.3 628.6931,-395.3 "/>
<text text-anchor="middle" x="578.0505" y="-378.7" font-family="Times,serif" font-size="14.00" fill="#000000">den=0.1454</text>
<polyline fill="none" stroke="#000000" points="527.4079,-370.5 628.6931,-370.5 "/>
<text text-anchor="middle" x="578.0505" y="-353.9" font-family="Times,serif" font-size="14.00" fill="#000000">obdobi=0.1482</text>
<polyline fill="none" stroke="#000000" points="527.4079,-345.7 628.6931,-345.7 "/>
<text text-anchor="middle" x="578.0505" y="-329.1" font-family="Times,serif" font-size="14.00" fill="#000000">vhkost=0.2964</text>
</g>
<!-- den -->
<g id="node2" class="node">
<title>den</title>
<polygon fill="none" stroke="#000000" points="219.2501,-192.7 219.2501,-267.1 356.7499,-267.1 356.7499,-192.7 219.2501,-192.7"/>
<text text-anchor="middle" x="237.3574" y="-225.7" font-family="Times,serif" font-size="14.00" fill="#000000">den</text>
<polyline fill="none" stroke="#000000" points="255.4647,-192.7 255.4647,-267.1 "/>
<text text-anchor="middle" x="306.1073" y="-250.5" font-family="Times,serif" font-size="14.00" fill="#000000">den=0.6556</text>
<polyline fill="none" stroke="#000000" points="255.4647,-242.3 356.7499,-242.3 "/>
<text text-anchor="middle" x="306.1073" y="-225.7" font-family="Times,serif" font-size="14.00" fill="#000000">obdobi=0.4669</text>
<polyline fill="none" stroke="#000000" points="255.4647,-217.5 356.7499,-217.5 "/>
<text text-anchor="middle" x="306.1073" y="-200.9" font-family="Times,serif" font-size="14.00" fill="#000000">vhkost=0.056</text>
</g>
<!-- teplota&#45;&gt;den -->
<g id="edge1" class="edge">
<title>teplota-&gt;den</title>
<path fill="none" stroke="#000000" d="M473.2419,-339.0253C448.5871,-328.2512 421.5007,-315.571 397.4618,-302.4 381.2697,-293.5283 364.3656,-283.0126 348.8212,-272.7813"/>
<polygon fill="#000000" stroke="#000000" points="350.6031,-269.763 340.3384,-267.1388 346.7262,-275.5914 350.6031,-269.763"/>
<text text-anchor="middle" x="472.7691" y="-289.8" font-family="Times,serif" font-size="14.00" fill="#000000">stredni {1,3,4,6,8,9,14,15}</text>
</g>
<!-- obdobi2 -->
<g id="node10" class="node">
<title>obdobi2</title>
<polygon fill="none" stroke="#000000" points="489.9121,-192.7 489.9121,-267.1 646.0879,-267.1 646.0879,-192.7 489.9121,-192.7"/>
<text text-anchor="middle" x="517.3574" y="-225.7" font-family="Times,serif" font-size="14.00" fill="#000000">obdobi</text>
<polyline fill="none" stroke="#000000" points="544.8027,-192.7 544.8027,-267.1 "/>
<text text-anchor="middle" x="595.4453" y="-250.5" font-family="Times,serif" font-size="14.00" fill="#000000">den=0.571</text>
<polyline fill="none" stroke="#000000" points="544.8027,-242.3 646.0879,-242.3 "/>
<text text-anchor="middle" x="595.4453" y="-225.7" font-family="Times,serif" font-size="14.00" fill="#000000">obdobi=1.1219</text>
<polyline fill="none" stroke="#000000" points="544.8027,-217.5 646.0879,-217.5 "/>
<text text-anchor="middle" x="595.4453" y="-200.9" font-family="Times,serif" font-size="14.00" fill="#000000">vhkost=0.7219</text>
</g>
<!-- teplota&#45;&gt;obdobi2 -->
<g id="edge9" class="edge">
<title>teplota-&gt;obdobi2</title>
<path fill="none" stroke="#000000" d="M549.6972,-320.4967C549.9866,-308.9885 550.766,-296.8323 552.4036,-285.6 552.7975,-282.8984 553.2836,-280.1424 553.8379,-277.374"/>
<polygon fill="#000000" stroke="#000000" points="557.3082,-277.8961 556.1008,-267.3703 550.4807,-276.3517 557.3082,-277.8961"/>
<text text-anchor="middle" x="619.7982" y="-289.8" font-family="Times,serif" font-size="14.00" fill="#000000">vysoka {2,10,11,12,13}</text>
</g>
<!-- Velka4 -->
<g id="node17" class="node">
<title>Velka4</title>
<path fill="none" stroke="#000000" d="M723,-247.9C723,-247.9 693,-247.9 693,-247.9 687,-247.9 681,-241.9 681,-235.9 681,-235.9 681,-223.9 681,-223.9 681,-217.9 687,-211.9 693,-211.9 693,-211.9 723,-211.9 723,-211.9 729,-211.9 735,-217.9 735,-223.9 735,-223.9 735,-235.9 735,-235.9 735,-241.9 729,-247.9 723,-247.9"/>
<text text-anchor="middle" x="708" y="-225.7" font-family="Times,serif" font-size="14.00" fill="#000000">Velka</text>
</g>
<!-- teplota&#45;&gt;Velka4 -->
<g id="edge16" class="edge">
<title>teplota-&gt;Velka4</title>
<path fill="none" stroke="#000000" d="M628.8488,-344.3717C649.8323,-334.1155 670.8806,-320.383 686,-302.4 696.4216,-290.0046 701.9075,-272.7632 704.7948,-258.2039"/>
<polygon fill="#000000" stroke="#000000" points="708.273,-258.6246 706.4713,-248.1841 701.3689,-257.4694 708.273,-258.6246"/>
<text text-anchor="middle" x="728.3785" y="-289.8" font-family="Times,serif" font-size="14.00" fill="#000000">nizka {5,7}</text>
</g>
<!-- obdobi -->
<g id="node3" class="node">
<title>obdobi</title>
<polygon fill="none" stroke="#000000" points="66.9121,-89.3 66.9121,-138.9 223.0879,-138.9 223.0879,-89.3 66.9121,-89.3"/>
<text text-anchor="middle" x="94.3574" y="-109.9" font-family="Times,serif" font-size="14.00" fill="#000000">obdobi</text>
<polyline fill="none" stroke="#000000" points="121.8027,-89.3 121.8027,-138.9 "/>
<text text-anchor="middle" x="172.4453" y="-122.3" font-family="Times,serif" font-size="14.00" fill="#000000">obdobi=0.8113</text>
<polyline fill="none" stroke="#000000" points="121.8027,-114.1 223.0879,-114.1 "/>
<text text-anchor="middle" x="172.4453" y="-97.5" font-family="Times,serif" font-size="14.00" fill="#000000">vhkost=0</text>
</g>
<!-- den&#45;&gt;obdobi -->
<g id="edge2" class="edge">
<title>den-&gt;obdobi</title>
<path fill="none" stroke="#000000" d="M219.01,-209.3561C200.0833,-200.9719 180.913,-189.535 166.7984,-174.2 160.2296,-167.0632 155.6053,-157.7954 152.3635,-148.6831"/>
<polygon fill="#000000" stroke="#000000" points="155.657,-147.4862 149.3617,-138.9645 148.9688,-149.5521 155.657,-147.4862"/>
<text text-anchor="middle" x="216.1008" y="-161.6" font-family="Times,serif" font-size="14.00" fill="#000000">svatek {1,6,8,14}</text>
</g>
<!-- Stredni -->
<g id="node8" class="node">
<title>Stredni</title>
<path fill="none" stroke="#000000" d="M285.4407,-132.1C285.4407,-132.1 252.5593,-132.1 252.5593,-132.1 246.5593,-132.1 240.5593,-126.1 240.5593,-120.1 240.5593,-120.1 240.5593,-108.1 240.5593,-108.1 240.5593,-102.1 246.5593,-96.1 252.5593,-96.1 252.5593,-96.1 285.4407,-96.1 285.4407,-96.1 291.4407,-96.1 297.4407,-102.1 297.4407,-108.1 297.4407,-108.1 297.4407,-120.1 297.4407,-120.1 297.4407,-126.1 291.4407,-132.1 285.4407,-132.1"/>
<text text-anchor="middle" x="269" y="-109.9" font-family="Times,serif" font-size="14.00" fill="#000000">Stredni</text>
</g>
<!-- den&#45;&gt;Stredni -->
<g id="edge7" class="edge">
<title>den-&gt;Stredni</title>
<path fill="none" stroke="#000000" d="M274.2237,-192.5251C272.4789,-186.4724 270.9569,-180.2165 269.9576,-174.2 268.2499,-163.9185 267.7289,-152.5118 267.7286,-142.4227"/>
<polygon fill="#000000" stroke="#000000" points="271.2333,-142.1649 267.9011,-132.1078 264.2343,-142.0478 271.2333,-142.1649"/>
<text text-anchor="middle" x="301.0212" y="-161.6" font-family="Times,serif" font-size="14.00" fill="#000000">vikend {3}</text>
</g>
<!-- Nizka4 -->
<g id="node9" class="node">
<title>Nizka4</title>
<path fill="none" stroke="#000000" d="M369,-132.1C369,-132.1 339,-132.1 339,-132.1 333,-132.1 327,-126.1 327,-120.1 327,-120.1 327,-108.1 327,-108.1 327,-102.1 333,-96.1 339,-96.1 339,-96.1 369,-96.1 369,-96.1 375,-96.1 381,-102.1 381,-108.1 381,-108.1 381,-120.1 381,-120.1 381,-126.1 375,-132.1 369,-132.1"/>
<text text-anchor="middle" x="354" y="-109.9" font-family="Times,serif" font-size="14.00" fill="#000000">Nizka</text>
</g>
<!-- den&#45;&gt;Nizka4 -->
<g id="edge8" class="edge">
<title>den-&gt;Nizka4</title>
<path fill="none" stroke="#000000" d="M319.9888,-192.6782C324.3465,-186.7098 328.5123,-180.4389 332,-174.2 337.6699,-164.0574 342.3788,-152.1721 345.9656,-141.6604"/>
<polygon fill="#000000" stroke="#000000" points="349.3088,-142.6966 349.0554,-132.1048 342.6484,-140.5429 349.3088,-142.6966"/>
<text text-anchor="middle" x="390.4588" y="-161.6" font-family="Times,serif" font-size="14.00" fill="#000000">pracovni {4,9,15}</text>
</g>
<!-- Nizka -->
<g id="node4" class="node">
<title>Nizka</title>
<path fill="none" stroke="#000000" d="M42,-36C42,-36 12,-36 12,-36 6,-36 0,-30 0,-24 0,-24 0,-12 0,-12 0,-6 6,0 12,0 12,0 42,0 42,0 48,0 54,-6 54,-12 54,-12 54,-24 54,-24 54,-30 48,-36 42,-36"/>
<text text-anchor="middle" x="27" y="-13.8" font-family="Times,serif" font-size="14.00" fill="#000000">Nizka</text>
</g>
<!-- obdobi&#45;&gt;Nizka -->
<g id="edge3" class="edge">
<title>obdobi-&gt;Nizka</title>
<path fill="none" stroke="#000000" d="M67.1514,-89.2892C58.516,-84.1837 50.4684,-78.0803 43.8524,-70.8 37.6197,-63.9415 33.6914,-54.7702 31.2158,-45.9971"/>
<polygon fill="#000000" stroke="#000000" points="34.5789,-45.0043 28.9259,-36.0436 27.7571,-46.5738 34.5789,-45.0043"/>
<text text-anchor="middle" x="69.5738" y="-58.2" font-family="Times,serif" font-size="14.00" fill="#000000">zima {1}</text>
</g>
<!-- Nizka2 -->
<g id="node5" class="node">
<title>Nizka2</title>
<path fill="none" stroke="#000000" d="M116,-36C116,-36 86,-36 86,-36 80,-36 74,-30 74,-24 74,-24 74,-12 74,-12 74,-6 80,0 86,0 86,0 116,0 116,0 122,0 128,-6 128,-12 128,-12 128,-24 128,-24 128,-30 122,-36 116,-36"/>
<text text-anchor="middle" x="101" y="-13.8" font-family="Times,serif" font-size="14.00" fill="#000000">Nizka</text>
</g>
<!-- obdobi&#45;&gt;Nizka2 -->
<g id="edge4" class="edge">
<title>obdobi-&gt;Nizka2</title>
<path fill="none" stroke="#000000" d="M114.0881,-89.0666C109.2201,-83.5907 104.8747,-77.4285 102.067,-70.8 98.8843,-63.2863 97.7856,-54.6153 97.7065,-46.4998"/>
<polygon fill="#000000" stroke="#000000" points="101.212,-46.4229 98.1005,-36.2953 94.2172,-46.1528 101.212,-46.4229"/>
<text text-anchor="middle" x="135.9665" y="-58.2" font-family="Times,serif" font-size="14.00" fill="#000000">podzim {6}</text>
</g>
<!-- Velka -->
<g id="node6" class="node">
<title>Velka</title>
<path fill="none" stroke="#000000" d="M205,-36C205,-36 175,-36 175,-36 169,-36 163,-30 163,-24 163,-24 163,-12 163,-12 163,-6 169,0 175,0 175,0 205,0 205,0 211,0 217,-6 217,-12 217,-12 217,-24 217,-24 217,-30 211,-36 205,-36"/>
<text text-anchor="middle" x="190" y="-13.8" font-family="Times,serif" font-size="14.00" fill="#000000">Velka</text>
</g>
<!-- obdobi&#45;&gt;Velka -->
<g id="edge5" class="edge">
<title>obdobi-&gt;Velka</title>
<path fill="none" stroke="#000000" d="M158.7805,-89.1158C161.9193,-83.1672 165.1628,-76.8027 168,-70.8 171.8013,-62.7575 175.6361,-53.8785 179.0154,-45.7332"/>
<polygon fill="#000000" stroke="#000000" points="182.3405,-46.8483 182.8787,-36.2671 175.8595,-44.2032 182.3405,-46.8483"/>
<text text-anchor="middle" x="198.8515" y="-58.2" font-family="Times,serif" font-size="14.00" fill="#000000">jaro {8}</text>
</g>
<!-- Nizka3 -->
<g id="node7" class="node">
<title>Nizka3</title>
<path fill="none" stroke="#000000" d="M277,-36C277,-36 247,-36 247,-36 241,-36 235,-30 235,-24 235,-24 235,-12 235,-12 235,-6 241,0 247,0 247,0 277,0 277,0 283,0 289,-6 289,-12 289,-12 289,-24 289,-24 289,-30 283,-36 277,-36"/>
<text text-anchor="middle" x="262" y="-13.8" font-family="Times,serif" font-size="14.00" fill="#000000">Nizka</text>
</g>
<!-- obdobi&#45;&gt;Nizka3 -->
<g id="edge6" class="edge">
<title>obdobi-&gt;Nizka3</title>
<path fill="none" stroke="#000000" d="M200.5298,-89.0711C209.5473,-83.7334 218.4065,-77.6181 226,-70.8 234.1727,-63.4619 241.4081,-53.903 247.209,-44.9384"/>
<polygon fill="#000000" stroke="#000000" points="250.2759,-46.6321 252.5133,-36.2762 244.3062,-42.9766 250.2759,-46.6321"/>
<text text-anchor="middle" x="266.9665" y="-58.2" font-family="Times,serif" font-size="14.00" fill="#000000">leto {14}</text>
</g>
<!-- Stredni2 -->
<g id="node11" class="node">
<title>Stredni2</title>
<path fill="none" stroke="#000000" d="M477.4407,-132.1C477.4407,-132.1 444.5593,-132.1 444.5593,-132.1 438.5593,-132.1 432.5593,-126.1 432.5593,-120.1 432.5593,-120.1 432.5593,-108.1 432.5593,-108.1 432.5593,-102.1 438.5593,-96.1 444.5593,-96.1 444.5593,-96.1 477.4407,-96.1 477.4407,-96.1 483.4407,-96.1 489.4407,-102.1 489.4407,-108.1 489.4407,-108.1 489.4407,-120.1 489.4407,-120.1 489.4407,-126.1 483.4407,-132.1 477.4407,-132.1"/>
<text text-anchor="middle" x="461" y="-109.9" font-family="Times,serif" font-size="14.00" fill="#000000">Stredni</text>
</g>
<!-- obdobi2&#45;&gt;Stredni2 -->
<g id="edge10" class="edge">
<title>obdobi2-&gt;Stredni2</title>
<path fill="none" stroke="#000000" d="M530.2669,-192.4883C524.3684,-186.4404 518.3947,-180.1955 512.8524,-174.2 502.7145,-163.2331 491.8674,-150.7807 482.7283,-140.0661"/>
<polygon fill="#000000" stroke="#000000" points="485.2498,-137.6278 476.1127,-132.2646 479.9109,-142.1552 485.2498,-137.6278"/>
<text text-anchor="middle" x="538.5738" y="-161.6" font-family="Times,serif" font-size="14.00" fill="#000000">zima {2}</text>
</g>
<!-- vhkost -->
<g id="node12" class="node">
<title>vhkost</title>
<polygon fill="none" stroke="#000000" points="507.2175,-89.3 507.2175,-138.9 628.7825,-138.9 628.7825,-89.3 507.2175,-89.3"/>
<text text-anchor="middle" x="533.8851" y="-109.9" font-family="Times,serif" font-size="14.00" fill="#000000">vhkost</text>
<polyline fill="none" stroke="#000000" points="560.5527,-89.3 560.5527,-138.9 "/>
<text text-anchor="middle" x="594.6676" y="-122.3" font-family="Times,serif" font-size="14.00" fill="#000000">den=0</text>
<polyline fill="none" stroke="#000000" points="560.5527,-114.1 628.7825,-114.1 "/>
<text text-anchor="middle" x="594.6676" y="-97.5" font-family="Times,serif" font-size="14.00" fill="#000000">vhkost=1</text>
</g>
<!-- obdobi2&#45;&gt;vhkost -->
<g id="edge11" class="edge">
<title>obdobi2-&gt;vhkost</title>
<path fill="none" stroke="#000000" d="M568,-192.6227C568,-178.7133 568,-162.9774 568,-149.2643"/>
<polygon fill="#000000" stroke="#000000" points="571.5001,-149.2358 568,-139.2358 564.5001,-149.2358 571.5001,-149.2358"/>
<text text-anchor="middle" x="602.7165" y="-161.6" font-family="Times,serif" font-size="14.00" fill="#000000">leto {10,11}</text>
</g>
<!-- Stredni3 -->
<g id="node15" class="node">
<title>Stredni3</title>
<path fill="none" stroke="#000000" d="M691.4407,-132.1C691.4407,-132.1 658.5593,-132.1 658.5593,-132.1 652.5593,-132.1 646.5593,-126.1 646.5593,-120.1 646.5593,-120.1 646.5593,-108.1 646.5593,-108.1 646.5593,-102.1 652.5593,-96.1 658.5593,-96.1 658.5593,-96.1 691.4407,-96.1 691.4407,-96.1 697.4407,-96.1 703.4407,-102.1 703.4407,-108.1 703.4407,-108.1 703.4407,-120.1 703.4407,-120.1 703.4407,-126.1 697.4407,-132.1 691.4407,-132.1"/>
<text text-anchor="middle" x="675" y="-109.9" font-family="Times,serif" font-size="14.00" fill="#000000">Stredni</text>
</g>
<!-- obdobi2&#45;&gt;Stredni3 -->
<g id="edge14" class="edge">
<title>obdobi2-&gt;Stredni3</title>
<path fill="none" stroke="#000000" d="M622.4363,-192.3884C629.0666,-186.6884 635.4484,-180.5691 641,-174.2 649.5293,-164.4147 656.9261,-152.155 662.6224,-141.2647"/>
<polygon fill="#000000" stroke="#000000" points="665.8408,-142.6539 667.1763,-132.1436 659.578,-139.5271 665.8408,-142.6539"/>
<text text-anchor="middle" x="680.3515" y="-161.6" font-family="Times,serif" font-size="14.00" fill="#000000">jaro {12}</text>
</g>
<!-- Velka3 -->
<g id="node16" class="node">
<title>Velka3</title>
<path fill="none" stroke="#000000" d="M764,-132.1C764,-132.1 734,-132.1 734,-132.1 728,-132.1 722,-126.1 722,-120.1 722,-120.1 722,-108.1 722,-108.1 722,-102.1 728,-96.1 734,-96.1 734,-96.1 764,-96.1 764,-96.1 770,-96.1 776,-102.1 776,-108.1 776,-108.1 776,-120.1 776,-120.1 776,-126.1 770,-132.1 764,-132.1"/>
<text text-anchor="middle" x="749" y="-109.9" font-family="Times,serif" font-size="14.00" fill="#000000">Velka</text>
</g>
<!-- obdobi2&#45;&gt;Velka3 -->
<g id="edge15" class="edge">
<title>obdobi2-&gt;Velka3</title>
<path fill="none" stroke="#000000" d="M646.174,-201.8068C676.3955,-190.501 705.1655,-179.0076 711,-174.2 721.6435,-165.4297 730.2343,-152.8684 736.537,-141.495"/>
<polygon fill="#000000" stroke="#000000" points="739.7929,-142.819 741.2879,-132.3302 733.5783,-139.5974 739.7929,-142.819"/>
<text text-anchor="middle" x="762.4665" y="-161.6" font-family="Times,serif" font-size="14.00" fill="#000000">podzim {13}</text>
</g>
<!-- Velka2 -->
<g id="node13" class="node">
<title>Velka2</title>
<path fill="none" stroke="#000000" d="M542,-36C542,-36 512,-36 512,-36 506,-36 500,-30 500,-24 500,-24 500,-12 500,-12 500,-6 506,0 512,0 512,0 542,0 542,0 548,0 554,-6 554,-12 554,-12 554,-24 554,-24 554,-30 548,-36 542,-36"/>
<text text-anchor="middle" x="527" y="-13.8" font-family="Times,serif" font-size="14.00" fill="#000000">Velka</text>
</g>
<!-- vhkost&#45;&gt;Velka2 -->
<g id="edge12" class="edge">
<title>vhkost-&gt;Velka2</title>
<path fill="none" stroke="#000000" d="M536.8267,-89.1331C531.9443,-83.6511 527.6081,-77.4696 524.8524,-70.8 521.7344,-63.2537 521.044,-54.5728 521.47,-46.4582"/>
<polygon fill="#000000" stroke="#000000" points="524.9773,-46.5762 522.563,-36.2602 518.0172,-45.8302 524.9773,-46.5762"/>
<text text-anchor="middle" x="554.0738" y="-58.2" font-family="Times,serif" font-size="14.00" fill="#000000">mala {10}</text>
</g>
<!-- Nizka5 -->
<g id="node14" class="node">
<title>Nizka5</title>
<path fill="none" stroke="#000000" d="M623,-36C623,-36 593,-36 593,-36 587,-36 581,-30 581,-24 581,-24 581,-12 581,-12 581,-6 587,0 593,0 593,0 623,0 623,0 629,0 635,-6 635,-12 635,-12 635,-24 635,-24 635,-30 629,-36 623,-36"/>
<text text-anchor="middle" x="608" y="-13.8" font-family="Times,serif" font-size="14.00" fill="#000000">Nizka</text>
</g>
<!-- vhkost&#45;&gt;Nizka5 -->
<g id="edge13" class="edge">
<title>vhkost-&gt;Nizka5</title>
<path fill="none" stroke="#000000" d="M578.4051,-89.1017C583.9559,-75.7658 590.7991,-59.3253 596.5064,-45.6135"/>
<polygon fill="#000000" stroke="#000000" points="599.8152,-46.772 600.4267,-36.1948 593.3526,-44.0821 599.8152,-46.772"/>
<text text-anchor="middle" x="623.6285" y="-58.2" font-family="Times,serif" font-size="14.00" fill="#000000">velka {11}</text>
</g>
</g>
</svg>